<svg xmlns:inkscape="http://www.inkscape.org/namespaces/inkscape" xmlns:rdf="http://www.w3.org/1999/02/22-rdf-syntax-ns#" xmlns="http://www.w3.org/2000/svg" sodipodi:docname="a.svg" xmlns:sodipodi="http://sodipodi.sourceforge.net/DTD/sodipodi-0.dtd" height="300" viewBox="0 0 560 450" width="410" version="1.1" xmlns:cc="http://creativecommons.org/ns#" xmlns:xlink="http://www.w3.org/1999/xlink" inkscape:version="0.91 r13725" xmlns:dc="http://purl.org/dc/elements/1.1/">
<defs>
<symbol id="ms_g_clef">
<title>G clef</title>
<path d="m6.5619 107.35c0.2835-3.2247 2.3293-5.8548 5.2089-6.6168 3.4821-0.92097 6.2744 1.2529 7.4222 3.6533 0.9725 2.0326 0.9687 4.662-0.1625 6.4066-1.451 2.2356-4.2652 3.4533-6.4735 2.7375-0.094 2.1521 3.2862 3.8339 6.4716 3.5875 4.4307-0.3439 7.6573-2.784 8.8886-6.76 1.1369-3.6722 0.5651-7.5371 0.121-10.425-0.2419-1.5715-0.8088-6.0961-1.3421-8.8086-5.6058 1.4339-11.667 0.2116-16.869-3.6952-5.0592-3.7982-8.6702-9.9881-9.561-16.848-0.7797-6.0051 0.1927-10.72 2.4548-14.924 5.1258-9.5233 12.629-15.164 17.031-19.516-0.9441-5.7192-1.4365-11.882-0.8246-16.836 0.8129-6.5809 3.7764-15.353 9.1513-18.835 1.1939-0.7738 2.3504-0.6348 3.1532 0.7555 2.5663 4.4446 4.0671 10.49 4.5468 15.425 0.6032 6.2072-1.4004 13.62-3.7403 17.671-2.889 5.0033-5.2051 7.9559-8.8451 11.263 0.2116 2.6264 0.9471 7.5521 1.4948 11.764 9.9903-0.5601 14.796 6.5175 15.858 13.079 1.6554 10.228-5.3114 17.232-11.542 19.803 0.076 1.2922 0.7914 6.4165 1.1485 8.6129 1.0625 6.5309 1.1709 11.342-1.6584 15.527-2.262 3.3441-5.5226 4.7981-9.5731 4.947-7.347 0.2721-12.87-6.1606-12.357-11.97zm9.6631-34.433c-0.8414 4.1654 0.3552 6.6358 3.9284 9.0116 1.9963 1.3265 1.2287 2.7569-1.7341 0.8283-4.1684-2.714-6.3185-7.4283-6.0188-12.229 0.4021-6.4419 5.4326-11.177 10.199-12.773-0.4388-3.4075-0.8527-6.8338-1.3788-10.466-4.0822 2.96-8.1834 6.7464-10.955 10.234-3.7507 4.7195-5.8196 9.5505-5.7716 14.615 0.087 9.2417 6.9629 15.091 13.274 16.717 3.1155 0.8024 6.6368 0.6977 8.8055-0.049-0.531-2.9874-3.0803-21.204-3.0803-23.226-3.4775 1.0536-6.6035 4.044-7.2683 7.3367zm19.63 1.703c-1.4246-6.0585-5.6383-8.9653-10.144-9.2104 0.5855 4.1984 2.7005 20.311 3.0724 22.789 5.3997-2.7583 8.191-8.8171 7.0715-13.579zm-5.7328-64.178c-4.2304-0.7052-7.7586 7.4307-8.4676 12.209-0.6286 4.2343-0.567 7.8628 0.091 11.771 4.25-3.2479 8.1047-7.6445 10.169-12.412 1.3557-3.1315 3.3781-10.706-1.7937-11.568z" inkscape:connector-curvature="0"/>
</symbol>
<symbol id="ms_note_1">
<title>note 1</title>
<path sodipodi:nodetypes="sssssssssss" d="m12.539 0c-6.9252 0-12.539 3.9705-12.539 8.868 0.00020001 4.897 5.6141 8.867 12.539 8.867 6.9252 0 12.539-3.9701 12.539-8.8674 0.001-4.8971-5.613-8.8676-12.539-8.8676zm5.5091 7.3884c1.1608 4.3332-0.3644 8.506-3.4067 9.3214-3.0423 0.8151-6.4499-2.0361-7.611-6.3693s0.3641-8.5066 3.4066-9.3217c0.3676-0.0988 1.1362-0.13644 1.1362-0.13644 2.7676 0 5.4749 2.774 6.4749 6.5061z" inkscape:connector-curvature="0"/>
</symbol>
<symbol id="ms_note_2">
<title>note 2</title>
<path sodipodi:nodetypes="ccsssscccssssss" d="m20.539 0v55.941c-1.6288-1.4313-4.1425-2.1613-6.9121-2.1152-2.0181 0.034-4.1686 0.4651-6.207 1.3261-5.9301 2.5051-8.6582 7.6636-6.8867 11.857 1.7716 4.1941 7.3707 5.8349 13.301 3.3301 5.6504-2.3867 9.5508-7.6734 8.375-11.795v-58.109zm-4.0703 56.949c1.5823 0 2.7223 0.4236 3.2324 1.1895 1.2483 1.8741-1.5143 5.2958-6.1699 7.6406s-9.4413 2.7254-10.69 0.8515c-1.2484-1.8742 1.5143-5.2941 6.17-7.6386 2.5725-1.2956 5.3177-2.0463 7.457-2.043z" inkscape:connector-curvature="0"/>
</symbol>
<symbol id="ms_note_32r">
<title>note 32r</title>
<path sodipodi:nodetypes="ccsccscssssccscsscccscsccscssc" d="m0 87.62 1.6699 0.012c0-8.1386 4.7554-10.442 6.9219-12.897 9.6558-10.94 11.064-17.505 8.1563-27.217 1.7634-4.5412 1.6943-8.7647 0.3515-13.777 0.9474-1.9626 1.5598-4.0013 1.6778-6.123 0.301-5.422-0.593-8.511-2.122-12.068 4.768-2.698 6.838-7.2559 5.24-11.037-1.217-2.8833-4.245-4.5595-7.945-4.512-1.681 0.021582-3.502 0.40059-5.355 1.1834-4.9712 2.1-8.5886 6.4442-8.589 10.266zm1.6703-72.254c2.7393 2.664 8.3693 3.1036 13.34 1.0039 0.2506-0.10586 0.4875-0.2228 0.7266-0.33789 1.5872 4.5631 2.0299 9.1004 1.3339 12.137-0.9645 4.2073-3.3309 6.6152-6.8398 9.2637-2.5255 1.9062-5.9689 3.9826-8.5605 5.8652zm14.375 20.311c0.9912 8.6964-1.8159 11.847-5.4883 16.256-2.0843 2.5024-5.9745 5.3154-8.8535 7.1621 0.3362-6.8563 3.9167-11.663 6.164-13.824 3.0927-2.9748 6.1006-6.1634 8.1778-9.5938zm-0.154 13.783c1.406 9.637-1.495 12.863-5.334 17.472-2.0918 2.512-6.0048 5.338-8.8867 7.184v-1.4844c0-8.1386 4.7553-10.442 6.9218-12.896 3.4095-3.8628 5.7708-7.174 7.2989-10.275z" inkscape:connector-curvature="0"/>
</symbol>
<symbol id="staff">
<title>Staff</title>
<path sodipodi:nodetypes="ccccccccccccccccccccccccc" inkscape:connector-curvature="0" d="m0 72.162v-1.6619h72v1.6619zm0-17.625v-1.6618h72v1.6618zm0-17.625v-1.6619h72v1.6619zm0-17.625v-1.6618h72v1.6618zm0-17.625v-1.6618h72v1.6618z"/>
</symbol>
<symbol id="ms_rest_4">
<title>rest 4</title>
<path sodipodi:nodetypes="sssssssssscsssczs" inkscape:connector-curvature="0" d="m5.1771 1.1067c2.2944 2.9145 8.3182 10.172 9.7979 14.883 0.5286 1.6829-0.232 4.3569-2.4024 6.7754-1.7728 1.9752-2.6216 4.4297-1.7523 7.6735 0.9959 3.7172 6.9451 10.48 8.3094 12.34 1.4321 1.9532 0.014 2.7455-1.9844 1.2405-3.1133-2.3432-7.2755-3.4186-9.9852-1.3592-2.6646 2.0255-2.637 4.1537 1.2309 10.853 0.8475 1.468 0.1196 2.2364-1.0358 1.2237-2.8023-2.454-7.1089-8.792-7.3259-11.277-0.58242-6.671 7.4414-8.557 11.224-6.263-2.7873-3.29-6.2687-6.932-7.3792-7.999-1.4524-1.3963-1.8513-4.2593-0.496-5.9534 1.4882-1.8603 3.2834-5.6266 3.8447-7.7514 0.8681-3.2866-0.6201-7.4414-1.6743-9.9839-0.5692-0.98581-1.4417-2.3059-2.2944-3.7827-0.8527-1.4769 0.2868-2.698 1.9223-0.62011z"/>
</symbol>
<symbol id="ms_segno">
<title>Segno</title>
<path sodipodi:nodetypes="sccccssssssccccssssssssssssssss" inkscape:connector-curvature="0" d="m3.1164 20.734c2.6394 3.3158 7.0687 6.1013 11.472 8.3838l-14.588 22.344h4.1301l13.577-20.797c2.7774 1.3188 5.3768 2.4367 7.2675 3.3199 5.7527 2.6873 8.5008 9.8373 6.1954 12.478-4.2379 4.8542-6.0358 0.6995-6.7982-2.6678-0.9777-4.3204-8.0033-3.8711-8.0033 1.4641 0 4.3888 5.2391 6.8836 9.2091 6.8836 9.0127 0 14.723-12.349 8.1557-20.73-2.5507-3.2555-6.8335-5.9892-11.137-8.2359l14.8-22.67h-4.1305l-13.787 21.117c-2.909-1.385-5.638-2.545-7.604-3.463-5.7527-2.687-8.458-9.8862-6.1953-12.478 4.009-4.592 6.0358-0.69914 6.7982 2.6678 0.9777 4.3203 8.0015 3.8714 8.0015-1.4641 0-4.1143-4.6047-6.9749-8.8287-6.8844-10.854 0.2316-14.657 13.041-8.5346 20.732zm32.724-5.237c-2.2517 0-4.0768 1.8255-4.0768 4.0771s1.8251 4.0767 4.0768 4.0767c2.2515 0 4.077-1.8251 4.077-4.0767s-1.8255-4.0771-4.077-4.0771zm-31.763 13.508c-2.2517 0-4.0768 1.826-4.0768 4.077 0 2.2516 1.8251 4.0767 4.0768 4.0767 2.2516 0 4.0767-1.8251 4.0767-4.0767s-1.8251-4.0771-4.0767-4.0771z"/>
</symbol>
<symbol id="ms_sharp">
<title>Sharp</title>
<path sodipodi:nodetypes="cccccccccccccccccccccccccccccccccc" inkscape:connector-curvature="0" d="m11.537 0-2.1752 0.2396v13.439l-4.1669 1.105v-12.88l-2.1751 0.2396v13.217l-3.0198 0.8v5.5601l3.0199-0.80011v11.875l-3.0199 0.799v5.5577l3.0199-0.8002v12.448l2.1751-0.2397v-12.788l4.1669-1.1049v12.228l2.1752-0.2397v-12.565l3.0372-0.8049v-5.5577l-3.0372 0.80493v-11.875l3.0372-0.80493v-5.5577l-3.0372 0.80493zm-2.1752 19.237v11.872l-4.1669 1.1049v-11.875z"/>
</symbol>
<symbol id="ms_flat">
<title>Flat</title>
<path sodipodi:nodetypes="ccsscsssccccs" inkscape:connector-curvature="0" d="m2.0953 38.716v-10.523c0.2105-1.0075 1.769-2.844 2.851-2.9141 2.4343-0.15691 3.6493 2.8827 2.5364 5.9901-0.8693 2.4271-3.5106 5.5854-5.3874 7.4466zm7.772-4.8445c0.9701-0.92719 3.0031-3.4406 2.6375-6.5513-0.3761-3.1997-3.1534-4.552-4.8871-4.552-1.6603 0-3.3634 0.79983-5.5224 2.4032v-25.172l-2.0953 0.23079v42.569c4.1779-3.8303 6.2686-5.4861 9.8673-8.9259z"/>
</symbol>
<symbol id="ms_rest_8">
<title>rest 8</title>
<path sodipodi:nodetypes="sscsssssscsss" inkscape:connector-curvature="0" d="m0.0002 5.8159c-0.0005 3.2132 2.6048 5.7754 5.8178 5.8177 3.6589 0.0471 7.3755-1.4443 9.7201-3.4167-1.1447 7.6472-5.9436 20.695-7.9209 25.296-0.4601 1.0699 3.9207 0.89405 4.1213-0.0684 1.215-5.826 5.386-21.651 7.013-25.189 0.681-1.4798 1.701-4.3133 2.183-5.1853 0.257-0.4669-0.15-1.0238-0.817-0.2648-1.073 1.221-2.175 2.0343-2.83 2.4011-1.847 1.0348-4.188 2.1273-5.842 2.0464 0.123-0.4696 0.188-0.9527 0.188-1.4379 0-3.2117-2.6036-5.8149-5.8153-5.8155-3.2124-0.00055991-5.8171 2.603-5.8177 5.8155z"/>
</symbol>
<symbol id="ms_coda">
<title>Coda</title>
<path inkscape:connector-curvature="0" d="m8.5001 0v1.375h7.5624v3.236a12.939 15.591 0 0 0 -11.706 14.414h-2.9805v-4.5256h-1.375v4.5256 2.3746 4.3499h1.375v-4.3499h2.9843a12.939 15.591 0 0 0 11.703 14.244v3.2304h-7.5624v1.3749h17.5v-1.3749h-7.5624v-3.2383a12.939 15.591 0 0 0 11.697 -14.236h2.99v4.3499h1.375v-4.3499-2.3746-4.5256h-1.375v4.5256h-2.9688a12.939 15.591 0 0 0 -11.718 -14.42v-3.2304h7.5624v-1.375zm7.5624 7.0428v11.982h-5.537a6.7521 13.293 0 0 1 5.537 -11.982zm2.375 0a6.7521 13.293 0 0 1 5.537 11.972h-5.537zm-7.9025 14.347h5.5275v11.799a6.7521 13.293 0 0 1 -5.527 -11.799zm7.9025 0h5.5313a6.7521 13.293 0 0 1 -5.5313 11.806z"/>
</symbol>
<symbol id="ms_beamed_notes_16a">
<title>Beamed notes 16A</title>
<path d="m20.539 0v56.008c-2.816-2.4727-8.2841-2.8256-13.119-0.7832-5.93 2.5051-8.6582 7.6636-6.8868 11.857 1.7715 4.1937 7.3707 5.8351 13.301 3.3301 5.6523-2.3877 9.553-7.6786 8.3731-11.801v-46.228h40.83v43.623c-2.8166-2.471-8.2854-2.8231-13.119-0.7812-5.93 2.5051-8.6563 7.6636-6.8848 11.857 1.7715 4.1937 7.3708 5.8351 13.301 3.3301 5.6493-2.3866 9.5476-7.6735 8.3731-11.795v-58.617zm1.668 5.8828h40.83v2.6172h-40.83z" inkscape:connector-curvature="0"/>
</symbol>
<symbol id="ms_f_clef">
<title>F clef</title>
<path sodipodi:nodetypes="sssssssssssssssscssssssss" inkscape:connector-curvature="0" d="m118.96 41.614c0 2.2253-1.8036 4.0289-4.029 4.0289-2.2246 0-4.0281-1.8036-4.0281-4.0289 0-2.225 1.8035-4.0286 4.0281-4.0286 2.2254 0 4.029 1.8036 4.029 4.0286zm0-17.5c0 2.2254-1.8036 4.029-4.029 4.029-2.2246 0-4.0281-1.8036-4.0281-4.029 0-2.225 1.8035-4.0285 4.0281-4.0285 2.2254 0 4.029 1.8035 4.029 4.0285zm-50.004 47.755c5.7645-3.7856 12.501-8.2522 16.896-12.654 5.4564-5.4671 8.9396-11.35 10.813-18.185 1.251-4.566 1.5572-8.866 0.9347-13.136-0.7945-5.4485-4.0324-9.3675-8.813-10.085-3.8362-0.576-8.3766 0.5586-11.193 2.7579-2.0405 1.5942-3.3901 4.7032-2.2896 7.748 4.4379-4.9357 11.536-1.7847 11.241 4.0263-0.1852 3.6234-3.4443 6.0997-7.2725 6.0997-5.5071 0-8.8765-3.7859-8.7095-8.1104 0.3833-9.9185 10.007-14.774 18.424-14.774 11.672 0 18.288 7.1149 18.957 17.275 0.5662 8.6006-3.846 16.258-10.002 22.538-6.915 7.0544-20.199 13.947-28.506 18.069-0.7808 0.387-1.1916-1.1006-0.4796-1.5685z"/>
</symbol>
<symbol id="ms_note_8">
<title>note 8</title>
<path sodipodi:nodetypes="ccsssccssccsscc" d="m20.538 0v55.936c-2.8167-2.471-8.2854-2.8231-13.119-0.7812-5.9301 2.505-8.6563 7.6637-6.8848 11.857 1.7716 4.1938 7.3707 5.8351 13.301 3.3301 5.6523-2.3877 9.553-7.6786 8.373-11.801v-39.203c3.022 0.4879 5.8851 2.0998 8.0489 4.3105 4.1306 4.2202 6.8272 10.619 5.5527 17.728-0.91869 5.1245-2.5568 8.3485-4.2012 12.422l1.1817-0.125c2.3638-5.3453 6.2918-12.908 5.2675-20.838-0.94945-7.3509-6.0705-12.47-9.4003-16.627-3.4443-4.2999-6.0235-7.1097-6.6582-16.133z" inkscape:connector-curvature="0"/>
</symbol>
<symbol id="ms_natural">
<title>Natural</title>
<path sodipodi:nodetypes="cccccccccccccc" inkscape:connector-curvature="0" d="m2.048 28.052 6.903-1.8286v-10.159l-6.903 1.8286zm6.903 2.973-8.951 2.371v-33.17l2.048-0.226v13.089l8.9509-2.3713v32.677l-2.0479 0.2254z"/>
</symbol>
<symbol id="ms_repeat_sign_a">
<title>Repeat sign A</title>
<path d="m18.586 40.45a2.5407 2.5407 0 0 0 2.5407 2.5407 2.5407 2.5407 0 0 0 2.5407 -2.5407 2.5407 2.5407 0 0 0 -2.5407 -2.5407 2.5407 2.5407 0 0 0 -2.5407 2.5407zm0-17.564a2.5407 2.5407 0 0 0 2.5407 2.5407 2.5407 2.5407 0 0 0 2.5407 -2.5407 2.5407 2.5407 0 0 0 -2.5407 -2.5408 2.5407 2.5407 0 0 0 -2.5407 2.5408zm-18.586 49.114h7.6616v-72h-7.6616zm12 0h1.6617v-72h-1.6617z" inkscape:connector-curvature="0"/>
</symbol>
<symbol id="ms_c_clef">
<title>C clef</title>
<path inkscape:connector-curvature="0" d="m68.589 15.556v71.999h7.6599v-71.999zm12 0v71.999h1.66v-35.433c3.82 1.4574 7.6014 9.0614 8.8947 15.557 0.2192-2.1875 2.0651-9.8127 7.875-9.8127 6.4157 0 6.0933 8.875 6.1247 14.375 0.038 3.7186-0.06 11.056-7.5311 11.687-4.4375 0.3742-5.3181-1.9464-3.0625-3.5312 2.5697-1.8051 1.9378-7.6247-2.75-7.6247-5.3117 0-6.2633 6.7524-3.25 9.6248 4.4478 4.2391 14.266 5.7687 20.125 0.4373 5.4935-4.9984 7.7986-15.488 1.5-23.062-3.1649-3.806-9.3501-6.178-15.625-3.1249-1.0148-1.4921-2.115-3.3509-3.1914-5.094 1.0764-1.7428 2.1766-3.6016 3.1914-5.0936 6.2747 3.0528 12.46 0.6808 15.625-3.125 6.2986-7.5741 3.9935-18.064-1.5-23.062-2.5633-2.3321-5.884-3.3505-9.1816-3.4042-4.2398-0.069-8.4411 1.4572-10.943 3.8418-3.0133 2.8721-2.0617 9.6249 3.25 9.6249 4.6878 0 5.3197-5.8199 2.75-7.625-2.2556-1.5845-1.375-3.906 3.0625-3.5311 7.471 0.6313 7.5689 7.9685 7.5311 11.687-0.038 5.4998 0.291 14.375-6.1247 14.375-5.8099 0-7.6558-7.6248-7.875-9.8124-1.2933 6.4953-5.0747 14.101-8.8947 15.559v-35.431z"/>
</symbol>
<symbol id="ms_common_time">
<title>Common time</title>
<path sodipodi:nodetypes="ssssssssssssssccsss" d="m62.164 128.44c-4.6786-4.7886-5.6031-11.275-3.7878-16.245 1.937-5.3019 7.5288-10.601 12.922-9.6834 5.5831 0.9498 8.8595 4.1967 9.2171 8.7752 0.0983 1.2552-0.57902 2.7375-1.426 3.6431-1.6849 1.8009-4.5184 1.8629-6.3613 0.1398-1.7858-1.6705-1.7072-4.4897 0.17385-6.1991 0.6875-0.6252 1.7628-1.1611 2.5829-1.2873 1.0201-0.1588 1.1539-0.3213 0.84623-1.036-0.54953-1.2771-3.0999-2.3368-5.1477-2.2193-3.8721 0.223-6.1012 3.7867-6.4338 8.5711-0.12094 1.7503-0.0567 9.1631 0.12095 10.283 0.58998 3.6756 2.008 5.8541 4.8453 6.6852 3.8706 1.1339 7.8273-2.3584 9.1819-7.9422 0.14362-0.5877 0.26457-1.1781 0.37871-1.7711 0.45996-0.057 1.2155 0 1.4169 0.098 0 0.359-0.3137 2.1335-0.5004 2.8391-1.4268 5.3563-5.3559 8.7628-10.187 8.9548-3.0788 0.1209-6.1455-1.8705-7.8425-3.6072z" inkscape:connector-curvature="0"/>
</symbol>
<symbol id="ms_note_32">
<title>note 32</title>
<path sodipodi:nodetypes="ccsssccssccsccscccscssccscsc" d="m20.539 0.01355v72.629c-2.8161-2.4727-8.2842-2.8256-13.119-0.7832-5.9301 2.5051-8.6584 7.6636-6.8868 11.857 1.7715 4.1937 7.3708 5.8332 13.301 3.3282 5.6496-2.3866 9.5495-7.6717 8.375-11.793v-30.918c2.5916 1.8826 6.0351 3.961 8.5606 5.8672 3.5089 2.6485 5.8753 5.0564 6.8398 9.2637 0.8452 3.6872 0.039 9.5856-2.496 15.059l0.9902 0.012c2.1844-4.7682 3.5812-7.9004 3.2129-14.522-0.118-2.1218-0.7304-4.1605-1.6778-6.123 1.3428-5.0129 1.4122-9.2359-0.3515-13.777 2.9072-9.712 1.4995-16.275-8.1563-27.215-2.165-2.455-6.921-4.7602-6.921-12.899zm1.6699 13.502c2.882 1.8464 6.795 4.6743 8.8867 7.1856 3.8396 4.6097 6.7395 7.834 5.3341 17.471-1.5282-3.1009-3.89-6.4113-7.2989-10.273-2.1665-2.4545-6.9219-4.7598-6.9219-12.898zm0.033 15.021c2.879 1.8467 6.7692 4.6617 8.8535 7.1641 3.6723 4.4088 6.4812 7.5583 5.4903 16.254-2.0771-3.4306-5.0868-6.6186-8.1797-9.5937-2.2473-2.1617-5.8279-6.9677-6.1641-13.824z" inkscape:connector-curvature="0"/>
</symbol>
</defs>
<sodipodi:namedview bordercolor="#666666" inkscape:pageshadow="2" guidetolerance="10" pagecolor="#ffffff" gridtolerance="10" inkscape:window-maximized="1" inkscape:zoom="0.47134503" objecttolerance="10" borderopacity="1" inkscape:current-layer="svg3336" inkscape:cx="214.11304" inkscape:cy="162.44549" inkscape:window-y="-8" inkscape:window-x="-8" inkscape:window-width="1024" showgrid="false" inkscape:pageopacity="0" inkscape:window-height="578" showguides="false">
<sodipodi:guide position="6.3647643,23.337469" orientation="1,0"/>
</sodipodi:namedview>
<g transform="matrix(12.436 0 0 14.669 -73.198 -44.998)">
<use xlink:href="#ms_g_clef" transform="matrix(.044326 0 0 .049893 27.472 8.6256)" height="100%" width="100%" y="0" x="0"/>
<use xlink:href="#ms_note_1" transform="matrix(.11702 0 0 .10282 23.262 12.613)" height="100%" width="100%" y="0" x="0"/>
<use xlink:href="#ms_note_2" transform="matrix(.077319 0 0 .069325 30.162 3.4878)" height="100%" width="100%" y="0" x="0"/>
<use inkscape:transform-center-y="9.2819479" inkscape:transform-center-x="2.1462448" xlink:href="#ms_note_32r" transform="matrix(.063304 0 0 .057057 32.941 5.701)" height="100%" width="100%" y="0" x="0"/>
<use xlink:href="#staff" transform="matrix(.29754 0 0 .069289 6.5646 24.849)" height="100%" width="100%" y="0" x="0"/>
<use xlink:href="#ms_rest_4" transform="matrix(.071022 0 0 .090585 30.852 10.93)" height="100%" width="100%" y="0" x="0"/>
<use xlink:href="#ms_segno" transform="matrix(.074935 0 0 .080632 33.744 12.453)" height="100%" width="100%" y="0" x="0"/>
<use xlink:href="#ms_sharp" transform="matrix(.13245 0 0 .072321 35.675 5.8147)" height="100%" width="100%" y="0" x="0"/>
<use xlink:href="#ms_flat" transform="matrix(.13028 0 0 .084113 37.881 12.231)" height="100%" width="100%" y="0" x="0"/>
<use xlink:href="#ms_rest_8" transform="matrix(.090426 0 0 .10513 38.026 9.1458)" height="100%" width="100%" y="0" x="0"/>
<use xlink:href="#ms_coda" transform="matrix(.086957 0 0 .074535 12.187 18.848)" height="100%" width="100%" y="0" x="0"/>
<use xlink:href="#ms_beamed_notes_16a" transform="matrix(.046213 0 0 .041902 18.725 16.355)" height="100%" width="100%" y="0" x="0"/>
<use xlink:href="#ms_f_clef" transform="matrix(.059558 0 0 .051773 12.1 17.741)" height="100%" width="100%" y="0" x="0"/>
<use xlink:href="#ms_rest_4" transform="matrix(.071022 0 0 .090585 34.439 25.213)" height="100%" width="100%" y="0" x="0"/>
<use xlink:href="#ms_segno" transform="matrix(.074935 0 0 .080632 37.356 24.948)" height="100%" width="100%" y="0" x="0"/>
<use xlink:href="#ms_note_1" transform="matrix(.11702 0 0 .10282 25.318 31.31)" height="100%" width="100%" y="0" x="0"/>
<use xlink:href="#ms_note_8" transform="matrix(.054202 0 0 .041943 29.287 29.58)" height="100%" width="100%" y="0" x="0"/>
<use xlink:href="#ms_natural" transform="matrix(.10041 0 0 .082530 32.689 26.829)" height="100%" width="100%" y="0" x="0"/>
<use xlink:href="#ms_repeat_sign_a" transform="matrix(.067602 0 0 .065609 22.377 17.088)" height="100%" width="100%" y="0" x="0"/>
<use xlink:href="#ms_c_clef" transform="matrix(.066123 0 0 .041667 20.25 17.103)" height="100%" width="100%" y="0" x="0"/>
<use xlink:href="#ms_common_time" transform="matrix(.12939 0 0 .10120 21.276 9.0157)" height="100%" width="100%" y="0" x="0"/>
<use xlink:href="#ms_note_32" transform="matrix(.062719 0 0 .050535 31.893 18.705)" height="100%" width="100%" y="0" x="0"/>
<use xlink:href="#ms_g_clef" transform="matrix(.044326 0 0 .049893 35.428 17.443)" height="100%" width="100%" y="0" x="0"/>
<use xlink:href="#ms_note_2" transform="matrix(.077319 0 0 .069325 37.985 16.88)" height="100%" width="100%" y="0" x="0"/>
<use xlink:href="#ms_note_1" transform="matrix(.11702 0 0 .10282 40.699 20.304)" height="100%" width="100%" y="0" x="0"/>
<use xlink:href="#ms_sharp" transform="matrix(.13245 0 0 .072321 44.119 18.583)" height="100%" width="100%" y="0" x="0"/>
<use xlink:href="#ms_g_clef" transform="matrix(.044326 0 0 .049893 45.771 21.421)" height="100%" width="100%" y="0" x="0"/>
<use xlink:href="#ms_rest_4" transform="matrix(.071022 0 0 .090585 48.76 21.235)" height="100%" width="100%" y="0" x="0"/>
<use xlink:href="#ms_rest_4" transform="matrix(.071022 0 0 .090585 41.069 24.948)" height="100%" width="100%" y="0" x="0"/>
</g>
</svg>
